# AST/ASF file generated using VICON BodyLanguage
# -----------------------------------------------
:version 1.10
:name VICON
:units
  mass 1.0
  length 0.45
  angle deg
:documentation
   .ast/.asf automatically generated from VICON data using
   VICON BodyBuilder and BodyLanguage model FoxedUp or BRILLIANT.MOD
:root
   order TX TY TZ RX RY RZ
   axis XYZ
   position 0 0 0  
   orientation 0 0 0 
:bonedata
  begin
     id 1 
     name lhipjoint
     direction 0.528046 -0.759594 0.379717 
     length 2.39752 
     axis 0 0 0  XYZ
  end
  begin
     id 2 
     name lfemur
     direction 0.34202 -0.939693 0  
     length 7.31175  
     axis 0 0 20  XYZ
    dof rx ry rz
    limits (-160.0 20.0)
           (-70.0 70.0)
           (-60.0 70.0)
  end
  begin
     id 3 
     name ltibia
     direction 0.34202 -0.939693 0   
     length 7.52482   
     axis 0 0 20   XYZ
    dof rx
    limits (-10.0 170.0)
  end
  begin
     id 4 
     name lfoot
     direction 0.0675379 -0.185559 0.980309   
     length 2.00961   
     axis -90 7.62852e-016 20   XYZ
    dof rx rz
    limits (-45.0 90.0)
           (-70.0 20.0)
  end
  begin
     id 5 
     name ltoes
     direction 1.5352e-011 -4.22286e-011 1   
     length 1.01383   
     axis -90 7.62852e-016 20   XYZ
    dof rx
    limits (-90.0 20.0)
  end
  begin
     id 6 
     name rhipjoint
     direction -0.510274 -0.769251 0.384544   
     length 2.36742  
     axis 0 0 0  XYZ 
  end
  begin
     id 7 
     name rfemur
     direction -0.34202 -0.939693 0   
     length 7.45325   
     axis 0 0 -20   XYZ
    dof rx ry rz
    limits (-160.0 20.0)
           (-70.0 70.0)
           (-70.0 60.0)
  end
  begin
     id 8 
     name rtibia
     direction -0.34202 -0.939693 0   
     length 7.49587   
     axis 0 0 -20   XYZ
    dof rx
    limits (-10.0 170.0)
 end
 begin
     id 9 
     name rfoot
     direction -0.106475 -0.292536 0.950308   
     length 2.20898  
     axis -90 -7.62852e-016 -20   XYZ
    dof rx rz
    limits (-45.0 90.0)
           (-20.0 70.0)
  end
  begin
     id 10 
     name rtoes
     direction -1.53597e-011 -4.22023e-011 1   
     length 1.10065   
     axis -90 -7.62852e-016 -20   XYZ
    dof rx
    limits (-90.0 20.0)
  end
  begin
     id 11 
     name lowerback
     direction 0.0260024 0.998026 -0.0571652   
     length 2.11214   
     axis 0 0 0   XYZ
    dof rx ry rz
    limits (-20.0 45.0)
           (-30.0 30.0)
           (-30.0 30.0)
  end
  begin
     id 12 
     name upperback
     direction 0.0216202 0.999542 -0.0211766   
     length 2.11689   
     axis 0 0 0   XYZ
    dof rx ry rz
    limits (-20.0 45.0)
           (-30.0 30.0)
           (-30.0 30.0)
  end
  begin
     id 13 
     name thorax
     direction 0.00883312 0.999944 0.00589057   
     length 2.11821   
     axis 0 0 0   XYZ
    dof rx ry rz
    limits (-20.0 45.0)
           (-30.0 30.0)
           (-30.0 30.0)
  end
  begin
     id 14 
     name lowerneck
     direction -0.059386 0.994433 0.0870401   
     length 1.81176   
     axis 0 0 0   XYZ
    dof rx ry rz
    limits (-20.0 45.0)
           (-30.0 30.0)
           (-30.0 30.0)
  end
  begin
     id 15 
     name upperneck
     direction 0.0506457 0.97328 -0.223967   
     length 1.82382   
     axis 0 0 0   XYZ
    dof rx ry rz
    limits (-20.0 45.0)
           (-30.0 30.0)
           (-30.0 30.0)
  end
  begin
     id 16
     name head
     direction 0.0205902 0.996147 -0.0852487  
     length 1.84805  
     axis 0 0 0   XYZ
    dof rx ry rz
    limits (-20.0 45.0)
           (-30.0 30.0)
           (-30.0 30.0)
  end
  begin
     id 17 
     name lclavicle
     direction 0.949493 0.303881 -0.0782325  
     length 3.60584  
     axis 0 0 0   XYZ
    dof ry rz
    limits (-20.0 10.0)
           (0.0 20.0)
  end
  begin
     id 18 
     name lhumerus
     direction 1 -4.48965e-011 1.48782e-027   
     length 4.95681   
     axis 180 -30 -90   XYZ
    dof rx ry rz
    limits (-60.0 90.0)
           (-90.0 90.0)
           (-90.0 90.0)
  end
  begin
     id 19
     name lradius
     direction 1 -4.48952e-011 2.06528e-027   
     length 3.40915   
     axis 180 -30 -90   XYZ
    dof rx
    limits (-10.0 170.0)
  end
  begin
     id 20
     name lwrist
     direction 1 -4.48964e-011 1.28021e-027   
     length 1.70457   
     axis -1.61767e-015 90 90   XYZ
    dof ry
    limits (-180.0 0.0)
 end
  begin
     id 21 
     name lhand
     direction 1 -4.49094e-011 2.54887e-027   
     length 0.616403   
     axis -1.63363e-015 90 90   XYZ
    dof rx rz
    limits (-90.0 90.0)
           (-45.0 45.0)
  end
  begin
     id 22 
     name lfingers
     direction 1 -4.49002e-011 5.11407e-027   
     length 0.49696   
     axis -3.26723e-015 90 90   XYZ
    dof rx
    limits (0.0 90.0)
  end
  begin
     id 23
     name lthumb
     direction 0.707107 -6.34998e-011 0.707107   
     length 0.713539   
     axis -90 45 -2.25915e-014   XYZ
    dof rx rz
    limits (-45.0 45.0)
           (-45.0 45.0)
  end
  begin
     id 24 
     name rclavicle
     direction -0.937751 0.334612 -0.0930482   
     length 3.46287  
     axis 0 0 0   XYZ 
    dof ry rz
    limits (-10.0 20.0)
           (-20.0 0.0)
  end
  begin
     id 25 
     name rhumerus
     direction -1 -4.48962e-011 3.59972e-027  
     length 5.352   
     axis 180 30 90   XYZ
    dof rx ry rz
    limits (-90.0 60.0)
           (-90.0 90.0)
           (-90.0 90.0)
  end
  begin
     id 26 
     name rradius
     direction -1 -4.48987e-011 -3.76925e-027   
     length 3.43721   
     axis 180 30 90   XYZ
    dof rx
    limits (-10.0 170.0)
  end
  begin
     id 27 
     name rwrist
     direction -1 -4.48943e-011 1.28112e-027   
     length 1.7186   
     axis -1.61767e-015 -90 -90   XYZ
    dof ry
    limits (-180.0 0.0)
  end
  begin
     id 28
     name rhand
     direction -1 -4.49027e-011 2.55483e-027   
     length 0.72009   
     axis -1.63363e-015 -90 -90   XYZ
    dof rx rz
    limits (-90.0 90.0)
           (-45.0 45.0)
  end
  begin
     id 29
     name rfingers
     direction -1 -4.48827e-011 5.14506e-027   
     length 0.580555   
     axis -3.26723e-015 -90 -90   XYZ
    dof rx
    limits (0.0 90.0)
  end
  begin
     id 30
     name rthumb
     direction -0.707107 -6.34936e-011 0.707107   
     length 0.833564   
     axis -90 -45 2.25915e-014   XYZ
    dof rx rz
    limits (-45.0 45.0)
           (-45.0 45.0)
  end
:hierarchy
  begin
    root lhipjoint rhipjoint lowerback
    lhipjoint lfemur
    lfemur ltibia
    ltibia lfoot
    lfoot ltoes
    rhipjoint rfemur
    rfemur rtibia
    rtibia rfoot
    rfoot rtoes
    lowerback upperback
    upperback thorax
    thorax lowerneck lclavicle rclavicle
    lowerneck upperneck
    upperneck head
    lclavicle lhumerus
    lhumerus lradius
    lradius lwrist
    lwrist lhand lthumb
    lhand lfingers
    rclavicle rhumerus
    rhumerus rradius
    rradius rwrist
    rwrist rhand rthumb
    rhand rfingers
  end

#!OML:ASF H:\Terrain\Patient Classification 1\Terrain2\Thursday\justin.ASF
:FULLY-SPECIFIED
:DEGREES
53
root 9.22837 17.4335 -26.7046 2.47379 -9.72012 -1.11788
lowerback 5.09665 1.40926 0.64802
upperback 1.87152 1.92497 1.67896
thorax -0.969115 0.957297 1.24688
lowerneck -16.4056 -0.546149 -7.53354
upperneck 30.8016 0.861435 2.06704
head 13.011 -0.238601 2.23946
rclavicle -2.22142e-014 -2.26615e-014
rhumerus -29.4253 -9.66845 -76.6237
rradius 26.4668
rwrist -4.41398
rhand -18.0789 10.0921
rfingers 7.12502
rthumb 8.19418 -19.729
lclavicle -2.22142e-014 -2.26615e-014
lhumerus -38.2135 11.264 80.9464
lradius 22.599
lwrist -3.81336
lhand -14.996 21.1162
lfingers 7.12502
lthumb 11.1686 50.7989
rfemur -5.93693 0.324769 18.8957
rtibia 59.9208
rfoot 6.70222 1.41537
rtoes -1.02246
lfemur -17.8208 4.06311 -21.5544
ltibia 25.3214
lfoot -7.01202 -7.28563
ltoes 12.7036
54
root 9.23345 17.4424 -26.5831 2.28879 -9.3264 -1.00033
lowerback 4.94041 1.07145 0.548143
upperback 2.03251 1.46558 1.72787
thorax -0.712425 0.727022 1.38513
lowerneck -16.219 -0.383941 -7.57121
upperneck 30.6587 1.15057 1.87132
head 12.8979 -0.13897 2.20946
rclavicle -1.80894e-014 -3.97569e-015
rhumerus -29.2962 -9.41689 -76.6812
rradius 26.3876
rwrist -4.79255
rhand -18.8703 10.1227
rfingers 7.12502
rthumb 7.43035 -19.7268
lclavicle -1.80894e-014 -3.97569e-015
lhumerus -37.8663 10.9341 81.1972
lradius 22.9967
lwrist -2.65216
lhand -14.3032 21.87
lfingers 7.12502
lthumb 11.8367 51.5155
rfemur -6.94284 -0.0568999 18.7581
rtibia 61.5645
rfoot 5.53845 0.46337
rtoes 0.765521
lfemur -16.992 3.67453 -21.7538
ltibia 24.9628
lfoot -7.42123 -7.2347
ltoes 11.9081
55
root 9.23611 17.4561 -26.4675 2.28786 -9.01611 -1.03561
lowerback 4.84104 0.930686 0.717624
upperback 2.15887 1.28094 1.65766
thorax -0.518264 0.6355 1.23123
lowerneck -16.2575 -0.374688 -7.40686
upperneck 30.504 1.14526 1.77497
head 12.8434 -0.130779 2.14034
rclavicle 1.41634e-014 -3.18055e-015
rhumerus -29.2746 -9.64741 -76.7865
rradius 26.4493
rwrist -5.20319
rhand -20.2896 9.85389
rfingers 7.12502
rthumb 6.06023 -20.0394
lclavicle 1.41634e-014 -3.18055e-015
lhumerus -37.2674 10.3749 81.2215
lradius 23.4756
lwrist -2.56937
lhand -13.3821 21.9978
lfingers 7.12502
lthumb 12.7249 51.5901
rfemur -8.29823 -0.319125 18.8532
rtibia 63.1565
rfoot 4.55903 -0.447957
rtoes 1.1995
lfemur -16.4059 3.50659 -21.7839
ltibia 24.6728
lfoot -7.85428 -7.32259
ltoes 11.6027
56
root 9.23296 17.4642 -26.3526 2.32304 -8.57257 -0.975251
lowerback 4.89503 0.744678 0.464379
upperback 2.02792 1.02697 1.77577
thorax -0.685126 0.507471 1.50608
lowerneck -15.9437 -0.296414 -7.37764
upperneck 30.4625 1.26726 1.62526
head 12.7557 -0.0921575 2.09228
rclavicle 1.98288e-014 -9.93923e-015
rhumerus -29.6546 -9.71495 -76.544
rradius 26.5433
rwrist -5.27111
rhand -20.7508 10.4144
rfingers 7.12502
rthumb 5.61496 -19.4912
lclavicle 1.98288e-014 -9.93923e-015
lhumerus -37.2892 10.0026 81.3408
lradius 24.2733
lwrist -2.5246
lhand -13.9701 21.9757
lfingers 7.12502
lthumb 12.1579 51.6024
rfemur -9.62658 -0.64453 18.9036
rtibia 64.6055
rfoot 3.50125 -1.27511
rtoes 1.90421
lfemur -15.8829 3.6243 -21.9155
ltibia 24.3287
lfoot -8.00306 -7.88424
ltoes 11.8992
57
root 9.23012 17.4714 -26.2426 2.36461 -8.76473 -0.861636
lowerback 4.93035 0.730922 0.126024
upperback 1.97158 0.995772 1.86487
thorax -0.769165 0.490732 1.78849
lowerneck -15.9914 -0.214667 -7.50844
upperneck 30.7245 1.43374 1.62554
head 12.8652 -0.0426563 2.14525
rclavicle 2.78299e-015 -9.93923e-015
rhumerus -29.7705 -9.92724 -76.3235
rradius 26.4667
rwrist -5.27189
rhand -21.0961 12.5701
rfingers 7.12502
rthumb 5.28154 -17.3441
lclavicle 2.78299e-015 -9.93923e-015
lhumerus -37.1431 9.93101 81.323
lradius 25.0977
lwrist -2.79745
lhand -15.3348 22.563
lfingers 7.12502
lthumb 10.8418 52.2632
rfemur -11.1498 -0.545672 18.8585
rtibia 65.8876
rfoot 2.84328 -1.5928
rtoes 0.358296
lfemur -15.3177 3.82337 -22.0923
ltibia 23.9045
lfoot -8.14154 -7.89465
ltoes 12.0835
58
root 9.22716 17.4855 -26.1153 2.21965 -8.47875 -0.646445
lowerback 4.87341 0.606474 -0.0831482
upperback 2.13924 0.816786 1.82297
thorax -0.562099 0.398973 1.87452
lowerneck -16.5098 -0.234457 -7.59884
upperneck 31.15 1.46283 1.71145
head 13.1509 -0.0439066 2.21217
rclavicle -5.86415e-015 3.97569e-015
rhumerus -29.6388 -10.3553 -76.2645
rradius 26.4969
rwrist -5.53309
rhand -22.0239 10.7089
rfingers 7.12502
rthumb 4.38569 -19.2257
lclavicle -5.86415e-015 3.97569e-015
lhumerus -36.5184 9.76458 81.2423
lradius 25.5803
lwrist -2.91817
lhand -15.2809 23.0754
lfingers 7.12502
lthumb 10.8938 52.7729
rfemur -12.3699 -0.984627 18.7684
rtibia 66.8852
rfoot 2.19932 -1.69623
rtoes -4.14309
lfemur -14.5229 3.66463 -22.3586
ltibia 23.4991
lfoot -8.38487 -8.00657
ltoes 12.5536
59
root 9.23383 17.4936 -25.9741 1.85547 -8.13108 -0.169595
lowerback 4.85195 0.573127 -0.340586
upperback 2.45261 0.754854 1.61492
thorax -0.226872 0.364074 1.81068
lowerneck -17.1682 -0.35276 -7.51404
upperneck 31.4079 1.31615 1.76293
head 13.4099 -0.100064 2.20662
rclavicle 2.74323e-014 1.23246e-014
rhumerus -29.5504 -11.2631 -76.1579
rradius 26.6417
rwrist -5.65725
rhand -22.3806 9.75795
rfingers 7.12502
rthumb 4.04122 -20.1835
lclavicle 2.74323e-014 1.23246e-014
lhumerus -35.6365 9.4391 81.0921
lradius 25.9027
lwrist -3.25327
lhand -13.6674 23.6983
lfingers 7.12502
lthumb 12.4498 53.3075
rfemur -13.1187 -1.28352 18.2051
rtibia 67.7343
rfoot 1.1078 -2.0371
rtoes -3.13936
lfemur -13.5416 3.42485 -22.9604
ltibia 23.2711
lfoot -8.75276 -8.05253
ltoes 12.5373
60
root 9.23676 17.4955 -25.8442 1.67542 -8.01972 -0.0531488
lowerback 4.84841 0.597159 -0.403019
upperback 2.46839 0.783659 1.54407
thorax -0.209552 0.378236 1.77162
lowerneck -16.979 -0.415235 -7.30447
upperneck 31.4162 1.17268 1.66249
head 13.3826 -0.151033 2.10637
rclavicle 2.28602e-015 9.14409e-015
rhumerus -30.0518 -11.8892 -75.9229
rradius 26.8297
rwrist -5.89357
rhand -20.9742 10.1981
rfingers 7.12502
rthumb 5.39923 -19.7132
lclavicle 2.28602e-015 9.14409e-015
lhumerus -35.3717 9.21689 80.7583
lradius 26.4557
lwrist -4.07554
lhand -12.8551 24.306
lfingers 7.12502
lthumb 13.2329 53.866
rfemur -13.9091 -1.01706 18.0282
rtibia 68.5351
rfoot -0.220517 -2.57605
rtoes 2.42774
lfemur -12.8849 3.37595 -23.1639
ltibia 23.3145
lfoot -9.14152 -7.97355
ltoes 13.5617
61
root 9.23318 17.4917 -25.7309 1.83175 -7.75604 -0.600898
lowerback 4.77563 0.417818 -0.0178043
upperback 2.2695 0.565509 1.81484
thorax -0.364759 0.272397 1.84399
lowerneck -16.4092 -0.314662 -7.21682
upperneck 31.3582 1.33349 1.36844
head 13.2318 -0.108068 1.99457
rclavicle 2.88238e-014 -1.23246e-014
rhumerus -30.7428 -11.1721 -75.8166
rradius 27.275
rwrist -6.99833
rhand -19.4869 10.479
rfingers 7.12502
rthumb 6.83511 -19.3907
lclavicle 2.88238e-014 -1.23246e-014
lhumerus -35.5964 8.90957 80.8081
lradius 27.3111
lwrist -3.5553
lhand -13.8953 24.296
lfingers 7.12502
lthumb 12.2301 53.9184
rfemur -15.14 -0.882292 18.8399
rtibia 69.1944
rfoot -1.22937 -3.01204
rtoes 2.34071
lfemur -12.6126 3.5598 -22.6085
ltibia 23.375
lfoot -9.30952 -8.2991
ltoes 15.4399
62
root 9.21829 17.4808 -25.6601 1.96541 -7.2782 -0.987471
lowerback 5.20909 0.170078 0.0070529
upperback 2.02567 0.248928 2.11611
thorax -0.847339 0.116428 2.15524
lowerneck -16.0622 -0.160939 -7.20254
upperneck 31.4082 1.61064 1.09678
head 13.1696 -0.0230689 1.92623
rclavicle -1.0635e-014 -1.70955e-014
rhumerus -31.265 -10.3685 -75.747
rradius 27.7494
rwrist -8.1012
rhand -20.1828 9.86856
rfingers 7.12502
rthumb 6.16337 -20.0218
lclavicle -1.0635e-014 -1.70955e-014
lhumerus -35.7281 8.52677 81.0352
lradius 28.2818
lwrist -2.53791
lhand -14.6469 24.3642
lfingers 7.12502
lthumb 11.5053 54.0284
rfemur -16.8303 -0.953135 19.7219
rtibia 69.835
rfoot -1.8525 -3.52529
rtoes -1.38278
lfemur -12.6212 3.62527 -22.1202
ltibia 23.5018
lfoot -9.1929 -8.8024
ltoes 15.5615
63
root 9.22183 17.4826 -25.5347 1.75411 -7.0986 -0.242793
lowerback 5.18587 0.0929056 -0.666101
upperback 2.11923 0.109943 1.92946
thorax -0.7337 0.0438109 2.34993
lowerneck -16.4061 -0.152291 -7.1962
upperneck 31.7745 1.68178 1.03906
head 13.3978 -0.0125279 1.92282
rclavicle 4.37326e-015 1.47101e-014
rhumerus -31.4502 -10.5175 -75.6337
rradius 27.9264
rwrist -8.38979
rhand -17.3024 12.1981
rfingers 7.12502
rthumb 8.94355 -17.5924
lclavicle 4.37326e-015 1.47101e-014
lhumerus -35.3479 8.36195 80.9275
lradius 29
lwrist -2.70591
lhand -13.948 24.7622
lfingers 7.12502
lthumb 12.1793 54.3876
rfemur -17.8525 -1.12494 18.8757
rtibia 70.2682
rfoot -2.97347 -3.37218
rtoes -2.229
lfemur -12.0359 3.64195 -23.0058
ltibia 23.5798
lfoot -9.4962 -8.99776
ltoes 13.6208
